{
  "accessors": [
    {
      "bufferView": 0,
      "componentType": 5125,
      "count": 67260,
      "type": "SCALAR"
    },
    {
      "bufferView": 1,
      "componentType": 5126,
      "count": 11302,
      "max": [
        4.85647249221802,
        4.8726692199707,
        9.4223461151123
      ],
      "min": [
        -4.98903131484985,
        -4.97782325744629,
        -9.4223461151123
      ],
      "type": "VEC3"
    },
    {
      "bufferView": 2,
      "componentType": 5126,
      "count": 11302,
      "type": "VEC3"
    },
    {
      "bufferView": 3,
      "componentType": 5126,
      "count": 11302,
      "type": "VEC4"
    },
    {
      "bufferView": 4,
      "componentType": 5126,
      "count": 11302,
      "type": "VEC2"
    },
    {
      "bufferView": 5,
      "componentType": 5125,
      "count": 17280,
      "type": "SCALAR"
    },
    {
      "bufferView": 6,
      "componentType": 5126,
      "count": 3003,
      "max": [
        4.87308740615845,
        4.88929176330566,
        8.99786472320557
      ],
      "min": [
        -5.00564670562744,
        -4.99444961547852,
        -8.43872356414795
      ],
      "type": "VEC3"
    },
    {
      "bufferView": 7,
      "componentType": 5126,
      "count": 3003,
      "type": "VEC3"
    },
    {
      "bufferView": 8,
      "componentType": 5126,
      "count": 3003,
      "type": "VEC4"
    },
    {
      "bufferView": 9,
      "componentType": 5126,
      "count": 3003,
      "type": "VEC2"
    },
    {
      "bufferView": 10,
      "componentType": 5125,
      "count": 12744,
      "type": "SCALAR"
    },
    {
      "bufferView": 11,
      "componentType": 5126,
      "count": 2203,
      "max": [
        1.40129888057709,
        1.60630226135254,
        0.177159309387207
      ],
      "min": [
        -1.46515154838562,
        -1.49833488464355,
        -0.0118207931518555
      ],
      "type": "VEC3"
    },
    {
      "bufferView": 12,
      "componentType": 5126,
      "count": 2203,
      "type": "VEC3"
    },
    {
      "bufferView": 13,
      "componentType": 5126,
      "count": 2203,
      "type": "VEC4"
    },
    {
      "bufferView": 14,
      "componentType": 5126,
      "count": 2203,
      "type": "VEC2"
    }
  ],
  "asset": {
    "generator": "Adobe Substance 3D Painter 8.2.0",
    "version": "2.0"
  },
  "bufferViews": [
    {
      "buffer": 0,
      "byteLength": 269040,
      "target": 34963
    },
    {
      "buffer": 0,
      "byteLength": 135624,
      "byteOffset": 269040,
      "target": 34962
    },
    {
      "buffer": 0,
      "byteLength": 135624,
      "byteOffset": 404664,
      "target": 34962
    },
    {
      "buffer": 0,
      "byteLength": 180832,
      "byteOffset": 540288,
      "target": 34962
    },
    {
      "buffer": 0,
      "byteLength": 90416,
      "byteOffset": 721120,
      "target": 34962
    },
    {
      "buffer": 0,
      "byteLength": 69120,
      "byteOffset": 811536,
      "target": 34963
    },
    {
      "buffer": 0,
      "byteLength": 36036,
      "byteOffset": 880656,
      "target": 34962
    },
    {
      "buffer": 0,
      "byteLength": 36036,
      "byteOffset": 916692,
      "target": 34962
    },
    {
      "buffer": 0,
      "byteLength": 48048,
      "byteOffset": 952728,
      "target": 34962
    },
    {
      "buffer": 0,
      "byteLength": 24024,
      "byteOffset": 1000776,
      "target": 34962
    },
    {
      "buffer": 0,
      "byteLength": 50976,
      "byteOffset": 1024800,
      "target": 34963
    },
    {
      "buffer": 0,
      "byteLength": 26436,
      "byteOffset": 1075776,
      "target": 34962
    },
    {
      "buffer": 0,
      "byteLength": 26436,
      "byteOffset": 1102212,
      "target": 34962
    },
    {
      "buffer": 0,
      "byteLength": 35248,
      "byteOffset": 1128648,
      "target": 34962
    },
    {
      "buffer": 0,
      "byteLength": 17624,
      "byteOffset": 1163896,
      "target": 34962
    }
  ],
  "buffers": [
    {
      "byteLength": 1181520,
      "uri": "Fanta.bin"
    }
  ],
  "images": [
    {
      "uri": "Material _39_baseColor.png"
    },
    {
      "uri": "Material _39_occlusionRoughnessMetallic.png"
    },
    {
      "uri": "Material _39_normal.png"
    },
    {
      "uri": "Material _46_baseColor.png"
    },
    {
      "uri": "Material _46_occlusionRoughnessMetallic.png"
    },
    {
      "uri": "Material _46_normal.png"
    },
    {
      "uri": "Material _49_baseColor.png"
    },
    {
      "uri": "Material _49_occlusionRoughnessMetallic.png"
    },
    {
      "uri": "Material _49_normal.png"
    }
  ],
  "materials": [
    {
      "alphaMode": "BLEND",
      "name": "Material _39",
      "normalTexture": {
        "index": 2
      },
      "occlusionTexture": {
        "index": 1
      },
      "pbrMetallicRoughness": {
        "baseColorTexture": {
          "index": 0
        },
        "metallicRoughnessTexture": {
          "index": 1
        }
      }
    },
    {
      "alphaMode": "OPAQUE",
      "name": "Material _46",
      "normalTexture": {
        "index": 5
      },
      "occlusionTexture": {
        "index": 4
      },
      "pbrMetallicRoughness": {
        "baseColorTexture": {
          "index": 3
        },
        "metallicRoughnessTexture": {
          "index": 4
        }
      }
    },
    {
      "alphaMode": "OPAQUE",
      "name": "Material _49",
      "normalTexture": {
        "index": 8
      },
      "occlusionTexture": {
        "index": 7
      },
      "pbrMetallicRoughness": {
        "baseColorTexture": {
          "index": 6
        },
        "metallicRoughnessTexture": {
          "index": 7
        }
      }
    }
  ],
  "meshes": [
    {
      "name": "Cylinder021",
      "primitives": [
        {
          "attributes": {
            "NORMAL": 2,
            "POSITION": 1,
            "TANGENT": 3,
            "TEXCOORD_0": 4
          },
          "indices": 0,
          "material": 1,
          "mode": 4
        }
      ]
    },
    {
      "name": "Cylinder021",
      "primitives": [
        {
          "attributes": {
            "NORMAL": 7,
            "POSITION": 6,
            "TANGENT": 8,
            "TEXCOORD_0": 9
          },
          "indices": 5,
          "material": 0,
          "mode": 4
        }
      ]
    },
    {
      "name": "Plane024",
      "primitives": [
        {
          "attributes": {
            "NORMAL": 12,
            "POSITION": 11,
            "TANGENT": 13,
            "TEXCOORD_0": 14
          },
          "indices": 10,
          "material": 2,
          "mode": 4
        }
      ]
    }
  ],
  "nodes": [
    {
      "children": [
        1,
        4
      ],
      "name": "RootNode"
    },
    {
      "children": [
        2,
        3
      ],
      "name": "Cylinder021",
      "rotation": [
        -0.70710676908493,
        0.0,
        0.0,
        0.70710676908493
      ],
      "translation": [
        68.7014312744141,
        9.91868019104004,
        455.570373535156
      ]
    },
    {
      "mesh": 0,
      "name": "Cylinder021"
    },
    {
      "mesh": 1,
      "name": "Cylinder021"
    },
    {
      "children": [
        5
      ],
      "name": "Plane024",
      "rotation": [
        -0.70710676908493,
        0.0,
        0.0,
        0.70710676908493
      ],
      "translation": [
        68.3542556762695,
        19.0009155273438,
        455.068267822266
      ]
    },
    {
      "mesh": 2,
      "name": "Plane024"
    }
  ],
  "samplers": [
    {
      "magFilter": 9729,
      "minFilter": 9985,
      "wrapS": 10497,
      "wrapT": 10497
    }
  ],
  "scene": 0,
  "scenes": [
    {
      "name": "Scene",
      "nodes": [
        0
      ]
    }
  ],
  "textures": [
    {
      "sampler": 0,
      "source": 0
    },
    {
      "sampler": 0,
      "source": 1
    },
    {
      "sampler": 0,
      "source": 2
    },
    {
      "sampler": 0,
      "source": 3
    },
    {
      "sampler": 0,
      "source": 4
    },
    {
      "sampler": 0,
      "source": 5
    },
    {
      "sampler": 0,
      "source": 6
    },
    {
      "sampler": 0,
      "source": 7
    },
    {
      "sampler": 0,
      "source": 8
    }
  ]
}